#define iconify_hover_width 9
#define iconify_hover_height 9
static unsigned char iconify_hover_bits[] = {
   0x00, 0x00, 0x00, 0x00, 0x00, 0x00, 0x00, 0x00, 0x1f, 0x00, 0x15, 0x00,
   0x1b, 0x00, 0x15, 0x00, 0x1f, 0x00 };
