#define max_hover_width 9
#define max_hover_height 9
static unsigned char max_hover_bits[] = {
   0xff, 0x01, 0xff, 0x01, 0xab, 0x01, 0x01, 0x01, 0x01, 0x01, 0x01, 0x01,
   0x01, 0x01, 0x01, 0x01, 0xff, 0x01 };
